<?xml version="1.0" encoding="utf-8"?>
<!-- Generator: Adobe Illustrator 24.1.0, SVG Export Plug-In . SVG Version: 6.00 Build 0)  -->
<svg version="1.1" id="Layer_1" xmlns="http://www.w3.org/2000/svg" xmlns:xlink="http://www.w3.org/1999/xlink" x="0px" y="0px"
	 viewBox="0 0 144 144" style="enable-background:new 0 0 144 144;" xml:space="preserve">
<style type="text/css">
	.st0{fill:#1D2858;}
</style>
<g>
	<g>
		<g>
			<g>
				<path class="st0" d="M0.62,54.31C0.68,24.43,24.75,0.31,54.48,0.34c30.09,0.03,54.09,24.22,53.99,54.39
					c-0.1,30.01-24.33,53.92-54.56,53.84C24.57,108.5,0.56,84.05,0.62,54.31z M13.9,54.44C13.92,77,31.97,95.25,54.33,95.29
					c22.7,0.05,40.93-18.21,40.9-40.97C95.2,31.77,76.91,13.55,54.35,13.62C31.95,13.68,13.88,31.91,13.9,54.44z"/>
				<path class="st0" d="M91.54,102.59c3.81-3.84,7.26-7.32,10.95-11.03c1.57,1.37,3.48,3.02,5.39,4.69
					c10.31,9.03,20.59,18.08,30.94,27.07c3.91,3.4,5.5,7.51,4.02,12.49c-2.52,8.47-13.03,10.61-19.08,3.79
					c-9.52-10.72-18.86-21.61-28.27-32.43C94.06,105.53,92.65,103.88,91.54,102.59z"/>
			</g>
		</g>
		<g>
			<path class="st0" d="M66.77,57.95c-4.33-5.55-4.49-9.28-13.28-9.28s-7.5,4.6-11.93,9s-6.84,4.93-6.84,9.47
				c0,5.78,3.34,10.47,9.82,10.47c2.94,0,4.91-1.58,9.58-1.52c4.67,0.06,6.64,1.52,9.58,1.52c6.47,0,9.81-4.69,9.81-10.47
				C73.51,62.5,69.65,61.64,66.77,57.95z"/>
			<g>
				
					<ellipse transform="matrix(0.8382 -0.5453 0.5453 0.8382 -21.9614 27.0588)" class="st0" cx="34.63" cy="50.54" rx="4.54" ry="7.06"/>
				
					<ellipse transform="matrix(0.5453 -0.8382 0.8382 0.5453 -8.443 85.5247)" class="st0" cx="74.61" cy="50.54" rx="7.06" ry="4.54"/>
			</g>
			<g>
				
					<ellipse transform="matrix(0.9468 -0.3217 0.3217 0.9468 -10.0206 16.6975)" class="st0" cx="45.51" cy="38.67" rx="5.13" ry="7.74"/>
				
					<ellipse transform="matrix(0.3217 -0.9468 0.9468 0.3217 5.9362 85.6171)" class="st0" cx="62.73" cy="38.67" rx="7.74" ry="5.13"/>
			</g>
		</g>
	</g>
</g>
</svg>
