<?xml version="1.0" encoding="utf-8"?>
<!-- Generator: Adobe Illustrator 24.1.0, SVG Export Plug-In . SVG Version: 6.00 Build 0)  -->
<svg version="1.1" id="Layer_1" xmlns="http://www.w3.org/2000/svg" xmlns:xlink="http://www.w3.org/1999/xlink" x="0px" y="0px"
	 viewBox="0 0 144 144" style="enable-background:new 0 0 144 144;" xml:space="preserve">
<style type="text/css">
	.st0{fill:#1D2858;}
</style>
<g>
	<g>
		<g>
			<g>
				<g>
					<path class="st0" d="M0.6,54.32C0.66,24.46,24.71,0.36,54.42,0.4c30.07,0.03,54.05,24.2,53.95,54.35
						c-0.1,29.99-24.31,53.88-54.52,53.8C24.54,108.47,0.55,84.04,0.6,54.32z M13.87,54.45C13.89,77,31.93,95.23,54.27,95.27
						c22.68,0.05,40.9-18.2,40.87-40.94C95.11,31.8,76.83,13.59,54.29,13.66C31.91,13.72,13.86,31.94,13.87,54.45z"/>
					<path class="st0" d="M91.6,102.57c3.81-3.84,7.26-7.31,10.94-11.02c1.57,1.36,3.48,3.02,5.38,4.69
						c10.3,9.02,20.58,18.07,30.91,27.05c3.91,3.39,5.49,7.51,4.01,12.48c-2.52,8.46-13.02,10.6-19.07,3.78
						c-9.52-10.71-18.84-21.6-28.25-32.41C94.11,105.51,92.71,103.86,91.6,102.57z"/>
				</g>
			</g>
		</g>
	</g>
	<g>
		<path class="st0" d="M49.9,62.39c-0.19-0.86-0.25-1.72-0.25-2.71c0-2.89,1.17-6.03,4.68-8.67l3.13-2.34
			c1.66-1.23,2.21-2.71,2.21-4.31c0-2.4-1.78-4.73-5.47-4.73c-3.56,0-5.66,2.89-5.66,5.78c0,1.41,0.13,2.03,0.19,2.28l-8.61-0.31
			c-0.19-0.86-0.25-1.78-0.25-2.58c0-7.19,5.35-13.28,14.33-13.28c9.96,0,14.94,5.96,14.94,12.11c0,4.92-2.27,8.3-5.96,11.07
			l-2.34,1.72c-2.15,1.6-3.62,3.2-3.62,5.96H49.9z M53.77,66.01c2.95,0,5.35,2.4,5.35,5.35c0,2.89-2.39,5.29-5.35,5.29
			s-5.29-2.4-5.29-5.29C48.48,68.41,50.82,66.01,53.77,66.01z"/>
	</g>
</g>
</svg>
